<?xml version="1.0" encoding="UTF-8"?>
<svg version="1.1" xmlns="http://www.w3.org/2000/svg" width="346" height="416">
<path d="M0 0 C11.22 0 22.44 0 34 0 C35.60875 3.444375 37.2175 6.88875 38.875 10.4375 C48.9555611 31.64608945 60.97778235 51.64047429 77.50439453 68.47363281 C79.00694569 70.00708855 80.48652406 71.56039452 81.96484375 73.1171875 C92.36595847 83.942628 103.92360348 92.59601293 117 100 C117.59619141 100.33773437 118.19238281 100.67546875 118.80664062 101.0234375 C145.05913178 115.64786189 172.6842807 118.20404681 202 114 C203.23673027 117.7101908 202.68975793 119.80196036 202.00390625 123.64453125 C201.83531349 124.61564095 201.83531349 124.61564095 201.66331482 125.60636902 C201.30331163 127.6763679 200.933755 129.74449175 200.5625 131.8125 C200.19559668 133.86990856 199.8309545 135.92761574 199.47239685 137.98649597 C199.14533117 139.86280487 198.81030168 141.73772041 198.47485352 143.61254883 C198.02847865 146.79684251 197.91153228 149.79036672 198 153 C198.58278717 153.03314301 199.16557434 153.06628601 199.76602173 153.10043335 C205.89978188 153.4504417 212.03301232 153.80885147 218.16601562 154.171875 C220.44681766 154.30581256 222.72774141 154.43769554 225.00878906 154.56738281 C256.79140589 156.37796133 256.79140589 156.37796133 267 160 C266.67 161.65 266.34 163.3 266 165 C259.69625914 166.51666792 253.56793165 167.49435412 247.11328125 168.05566406 C246.19702469 168.13836674 245.28076813 168.22106941 244.33674622 168.30627823 C235.29567342 169.10015581 226.25363426 169.6962284 217.1875 170.109375 C216.2768277 170.15124687 215.3661554 170.19311874 214.42788696 170.23625946 C182.66199714 171.63327548 150.83092926 171.29994917 119.04202461 171.25713873 C112.78873671 171.24959314 106.53551215 171.25231969 100.28222656 171.26074219 C-29.46371324 171.43093888 -29.46371324 171.43093888 -43 164 C-42.8125 162.125 -42.8125 162.125 -42 160 C-38.42169948 158.22764927 -35.07994716 157.60917866 -31.1328125 157.18359375 C-29.44442261 156.9976062 -29.44442261 156.9976062 -27.72192383 156.80786133 C-25.94144653 156.62453247 -25.94144653 156.62453247 -24.125 156.4375 C-22.90643311 156.30819092 -21.68786621 156.17888184 -20.43237305 156.0456543 C-9.13585714 154.86879271 2.06151401 153.93832364 13.42578125 153.98046875 C14.52436462 153.98258362 14.52436462 153.98258362 15.6451416 153.98474121 C17.43009793 153.98838249 19.21505009 153.99398557 21 154 C20.84031738 152.92298828 20.68063477 151.84597656 20.51611328 150.73632812 C16.59544286 124.2470467 12.81893918 97.73897053 9.13741302 71.21554565 C8.81752008 68.91116271 8.4973155 66.60682323 8.17706299 64.30249023 C6.77405812 54.20311463 5.38132291 44.10236397 4 34 C3.90166618 33.28153397 3.80333237 32.56306793 3.70201874 31.8228302 C3.12016466 27.56891367 2.54166894 23.31456274 1.96793175 19.05954361 C1.7059898 17.12043728 1.4416271 15.18165845 1.17720032 13.2428894 C0.94386238 11.50254929 0.94386238 11.50254929 0.70581055 9.72705078 C0.56886276 8.71313263 0.43191498 7.69921448 0.29081726 6.65457153 C0 4 0 4 0 0 Z " fill="#37c3ffc1" transform="translate(55,245)"/>
<path d="M0 0 C58.08 0 116.16 0 176 0 C174.87493981 15.75084262 174.87493981 15.75084262 173.89257812 22.21118164 C173.78674911 22.9172052 173.6809201 23.62322876 173.57188416 24.35064697 C173.23020355 26.62130608 172.88089876 28.89071181 172.53125 31.16015625 C172.2880089 32.76477967 172.04521986 34.36947168 171.80285645 35.97422791 C171.29844773 39.30681403 170.79058908 42.63884718 170.27978516 45.97045898 C169.62623033 50.23316507 168.9785141 54.49673109 168.33298492 58.76065922 C167.71336348 62.85243067 167.09130374 66.94383005 166.46875 71.03515625 C166.35112808 71.80894182 166.23350616 72.58272739 166.11231995 73.37996101 C165.77867334 75.57130122 165.44334316 77.76237662 165.10742188 79.95336914 C164.91724487 81.19687637 164.72706787 82.44038361 164.53112793 83.72157288 C164.0813362 86.49794618 163.57572972 89.24744013 163 92 C175.14900255 84.72712773 181.2829233 75.73520087 186.3125 62.5625 C188.67147535 50.33871862 188.58903598 37.84088477 183.41015625 26.2734375 C180.66216806 19.89445107 181.86296503 14.41110492 184 8 C192.87915676 15.82536673 197.2098154 30.67362671 198.17578125 42.07470703 C199.29239644 60.12798183 194.93930519 75.4272319 183.4375 89.6875 C170.61457286 103.30257708 153.65712674 107.8293737 135.4921875 109.1875 C132.97255563 109.255829 130.51608045 109.15902194 128 109 C126.7934375 108.93167969 125.586875 108.86335938 124.34375 108.79296875 C93.72353508 106.45031788 66.61940898 89.91250733 45 69 C44.07445312 68.12601562 43.14890625 67.25203125 42.1953125 66.3515625 C35.03488747 59.43455135 28.88231893 52.00406175 23 44 C22.39188477 43.18233154 22.39188477 43.18233154 21.77148438 42.34814453 C15.37989052 33.64208237 10.30754997 24.23841105 5.3125 14.6875 C4.99010345 14.07556793 4.66770691 13.46363586 4.33554077 12.8331604 C3.41848043 11.08520391 2.51557291 9.32984437 1.61328125 7.57421875 C0.82111206 6.03640747 0.82111206 6.03640747 0.01293945 4.4675293 C-0.32133057 3.65324463 -0.65560059 2.83895996 -1 2 C-0.67 1.34 -0.34 0.68 0 0 Z " fill="#37c3ffc1" transform="translate(99,245)"/>
<path d="M0 0 C4.6459651 3.03436807 6.45333342 6.4452945 8.390625 11.48046875 C8.69206924 12.22803436 8.99351349 12.97559998 9.30409241 13.74581909 C10.29921227 16.22133791 11.27419319 18.70431238 12.25 21.1875 C12.95431117 22.94719937 13.66031698 24.70622132 14.36791992 26.46459961 C15.84640603 30.14013785 17.31908947 33.81792499 18.78857422 37.49707031 C21.87884218 45.21164972 25.07197611 52.88310764 28.26794434 60.55435181 C30.04324992 64.81714952 31.81242168 69.08249154 33.58203125 73.34765625 C33.94034027 74.21096054 34.29864929 75.07426483 34.66781616 75.96372986 C39.35806764 87.26739912 44.02506148 98.5806808 48.6940918 109.89312744 C53.04370112 120.43114186 57.39808891 130.96711455 61.76953125 141.49609375 C62.15474945 142.42410797 62.53996765 143.35212219 62.93685913 144.30825806 C64.75473775 148.68718597 66.57370516 153.06565626 68.39453125 157.44335938 C69.05081227 159.02342462 69.70706382 160.6035021 70.36328125 162.18359375 C70.64379837 162.85684189 70.92431549 163.53009003 71.21333313 164.22373962 C74.21440156 171.45513791 77.09130809 178.72827022 80 186 C97.16 186.33 114.32 186.66 132 187 C132.66 183.37 133.32 179.74 134 176 C134.67841689 173.18997512 135.37772604 170.40890883 136.13891602 167.62280273 C136.34242676 166.86363052 136.5459375 166.10445831 136.75561523 165.32228088 C137.41736529 162.85819076 138.08546709 160.39587688 138.75390625 157.93359375 C139.21980786 156.20541642 139.68537322 154.47714842 140.15061951 152.74879456 C141.1203454 149.1500521 142.09304373 145.55213166 143.06811523 141.95483398 C144.31912273 137.33917128 145.56420865 132.72193701 146.80731297 128.10414028 C147.76550527 124.54615917 148.72595141 120.98878981 149.68717766 117.43162727 C150.14739525 115.72806524 150.6071002 114.02436463 151.06628609 112.32052422 C151.70551012 109.95063677 152.34756437 107.58153511 152.99047852 105.21264648 C153.18010666 104.50776093 153.3697348 103.80287537 153.56510925 103.07662964 C154.88549116 98.22901767 154.88549116 98.22901767 156 96 C160.85959056 97.01894641 165.69836092 98.10886174 170.5 99.375 C171.3353125 99.58898437 172.170625 99.80296875 173.03125 100.0234375 C175 101 175 101 175.73544312 102.5823822 C176.12444111 106.13718853 175.1382516 109.26117271 174.20166016 112.65844727 C173.99858749 113.42474457 173.79551483 114.19104187 173.58628845 114.9805603 C172.91304281 117.51172399 172.2261736 120.03897458 171.5390625 122.56640625 C171.06839004 124.32448432 170.59854245 126.0827834 170.12948608 127.84129333 C168.89227305 132.47025939 167.64335557 137.09599079 166.39215088 141.72119141 C165.12113845 146.42865982 163.86208967 151.13932488 162.6015625 155.84960938 C160.75917556 162.72494151 158.91378204 169.59945251 157.05712891 176.47094727 C156.76561699 177.55340477 156.76561699 177.55340477 156.46821594 178.6577301 C155.7079881 181.46569629 154.92019291 184.23942126 154 187 C154.85111359 186.99111755 155.70222717 186.98223511 156.57913208 186.9730835 C164.61222191 186.89283231 172.6451765 186.8319822 180.67857552 186.79275131 C184.80835235 186.77190394 188.93779709 186.7436391 193.06738281 186.69824219 C197.05501429 186.65468167 201.04232696 186.63084145 205.03017807 186.62049103 C206.5492034 186.61311787 208.0682119 186.59871958 209.58710098 186.57707977 C211.72006761 186.54790825 213.85172827 186.54404946 215.98486328 186.54589844 C217.1973172 186.53701599 218.40977112 186.52813354 219.65896606 186.51898193 C223.70373047 187.10131806 225.83584007 188.45704094 229 191 C231.82368571 195.23552856 231.66653757 199.02477314 231 204 C229.20353146 206.93423195 228.0558929 208.47205355 225 210 C222.46511423 210.10855435 219.95703826 210.15662048 217.42141724 210.16062927 C216.63032149 210.16571709 215.83922575 210.17080491 215.0241574 210.17604691 C212.35871742 210.19181216 209.69330461 210.20030708 207.02783203 210.20874023 C205.12271958 210.21827522 203.21760889 210.22816622 201.3125 210.23838806 C195.04429183 210.26980755 188.77607023 210.29004039 182.5078125 210.30859375 C180.90989624 210.31353973 180.90989624 210.31353973 179.27969885 210.31858563 C169.239681 210.34936236 159.19966024 210.37607887 149.15960884 210.39300442 C136.30140489 210.41493258 123.44361739 210.45694774 110.58557999 210.52644199 C101.55285775 210.57361093 92.52024818 210.59792829 83.48740661 210.6052013 C78.08800308 210.61016745 72.68906866 210.62533993 67.28979874 210.6649456 C62.2122301 210.70170087 57.13540066 210.71025828 52.057724 210.69693947 C50.19203109 210.6969936 48.32630633 210.7073636 46.46073532 210.7286911 C43.91710496 210.7562208 41.37619916 210.74693485 38.83255005 210.72825623 C38.09072168 210.74505115 37.34889332 210.76184608 36.58458531 210.77914995 C34.51637459 210.74108028 34.51637459 210.74108028 31 210 C28.71359062 206.97792149 28.71359062 206.97792149 27 204 C23.83073436 203.49830585 23.83073436 203.49830585 21 204 C21 205.98 21 207.96 21 210 C16.74867466 211.19979209 12.63736624 211.09728178 8.25390625 211.01953125 C7.40577866 211.00540695 6.55765106 210.99128265 5.68382263 210.97673035 C3.89258724 210.94366858 2.10140987 210.90732203 0.31030273 210.86791992 C-2.42402453 210.81277178 -5.15785929 210.784164 -7.89257812 210.75585938 C-9.63545097 210.72039764 -11.37829224 210.68334102 -13.12109375 210.64453125 C-13.9358165 210.64016556 -14.75053925 210.63579987 -15.58995056 210.63130188 C-20.63678557 210.48041832 -23.32631749 209.77454951 -27 206 C-29.45038229 202.32806215 -29.19342413 199.43413793 -28.61328125 195.19140625 C-27.65775922 191.77708867 -25.76434517 190.10616775 -23 188 C-19.46817642 186.82272547 -16.68663738 186.88005742 -12.95825195 186.88647461 C-11.88957886 186.88625557 -11.88957886 186.88625557 -10.79931641 186.8860321 C-8.445607 186.88672849 -6.09197683 186.89450808 -3.73828125 186.90234375 C-2.10589135 186.9042089 -0.47350089 186.90563235 1.15888977 186.90663147 C5.45461575 186.91044899 9.75030789 186.92027276 14.04602051 186.93133545 C18.42976423 186.94156601 22.81351341 186.94613262 27.19726562 186.95117188 C35.7981926 186.9618957 44.39909209 186.97896295 53 187 C44.89203005 167.19262155 36.76468894 147.39357833 28.5625 127.625 C28.2109787 126.77755219 27.8594574 125.93010437 27.49728394 125.05697632 C23.95663763 116.52177954 20.41235567 107.98811103 16.85952759 99.45797729 C5.99527877 73.36960426 -4.68550402 47.20909549 -15.20187378 20.97839355 C-15.8597646 19.3476152 -16.53336814 17.72318484 -17.21118164 16.10058594 C-18.30774144 13.18049913 -18.37947865 11.09907565 -18 8 C-14.1903568 0.52723834 -8.0766991 -2.84785344 0 0 Z " fill="#37c3ffc1" transform="translate(64,27)"/>
<path d="M0 0 C3.71960185 0.82288577 7.34661661 1.9064926 10.9921875 3.0078125 C12.07026672 3.32498734 13.14834595 3.64216217 14.25909424 3.96894836 C17.80028752 5.01251654 21.33754403 6.06883985 24.875 7.125 C28.60213722 8.22668674 32.33025209 9.32502017 36.05844116 10.42314148 C38.60468017 11.17331183 41.15063609 11.92437467 43.69619751 12.67683411 C55.12178031 16.04994558 66.57632479 19.31605752 78.03848267 22.56225586 C92.45090288 26.64918782 106.85611537 30.76122377 121.1875 35.125 C122.33299316 35.46716553 123.47848633 35.80933105 124.65869141 36.16186523 C131.22004784 38.1944649 136.78458889 39.9270104 140.9375 45.6875 C142.35197764 50.09734204 142.30298612 53.55872415 141 58 C139.20240678 61.25640926 136.89777071 63.42642427 133.75 65.4375 C126.91360497 66.83585353 119.89408188 64.60756454 113.37890625 62.56640625 C112.20170265 62.20940895 112.20170265 62.20940895 111.00071716 61.84519958 C108.51896998 61.09173026 106.04055603 60.32801335 103.5625 59.5625 C89.43925592 55.15758448 89.43925592 55.15758448 75 52 C74.76539063 52.76570313 74.53078125 53.53140625 74.2890625 54.3203125 C72.55264864 59.27698479 70.46361474 64.05813225 68.375 68.875 C67.95476562 69.84953125 67.53453125 70.8240625 67.1015625 71.828125 C66.06989974 74.21970686 65.03598716 76.61028899 64 79 C58.12209036 78.4135419 52.76485872 77.23153557 47.125 75.5 C46.36703125 75.27441406 45.6090625 75.04882812 44.828125 74.81640625 C39.32024275 73.16012137 39.32024275 73.16012137 37 72 C37.13277344 70.94683594 37.26554687 69.89367187 37.40234375 68.80859375 C38.58609196 59.21217747 39.4659376 49.65528601 40 40 C39.20464844 39.81566406 38.40929687 39.63132813 37.58984375 39.44140625 C28.32538557 37.21199118 19.13966607 34.70466856 9.97561646 32.09591675 C8.58202257 31.70057283 7.18738994 31.3088713 5.79171753 30.92092896 C3.79288529 30.36404615 1.79855087 29.79313604 -0.1953125 29.21875 C-1.36078613 28.88810547 -2.52625977 28.55746094 -3.72705078 28.21679688 C-8.20802725 26.55088708 -11.80100979 24.43878826 -14.875 20.75 C-16.77622076 16.10257148 -16.81708622 11.95192819 -14.875 7.3125 C-10.28342143 1.6495531 -7.34858621 -0.59894715 0 0 Z " fill="#37c3ffc1" transform="translate(183,42)"/>
<path d="M0 0 C3 1 3 1 3.99560547 2.59472656 C4.28322754 3.26987305 4.57084961 3.94501953 4.8671875 4.640625 C5.36025391 5.75244141 5.36025391 5.75244141 5.86328125 6.88671875 C6.53089749 8.44620842 7.19758413 10.00609641 7.86328125 11.56640625 C11.83161294 20.50673328 16.90540572 23.8120983 25.8125 27.3125 C26.69615234 27.67150391 27.57980469 28.03050781 28.49023438 28.40039062 C30.65585992 29.27834693 32.82546402 30.14440827 35 31 C35 31.99 35 32.98 35 34 C34.22136597 34.33209473 34.22136597 34.33209473 33.42700195 34.67089844 C31.05197605 35.68925868 28.68228271 36.71950081 26.3125 37.75 C25.49587891 38.09804687 24.67925781 38.44609375 23.83789062 38.8046875 C14.50974572 42.88339054 11.11360032 46.92142885 7.1875 56.25 C6.78080078 57.18585938 6.37410156 58.12171875 5.95507812 59.0859375 C4.95775016 61.38565847 3.97330409 63.69003343 3 66 C2.01 65.67 1.02 65.34 0 65 C-1.57429877 61.76559945 -2.90422607 58.51014016 -4.21875 55.16601562 C-7.72006999 46.62563376 -12.17827238 42.34838095 -20.5625 38.75 C-22.06382862 38.07818429 -23.56513154 37.40631117 -25.06640625 36.734375 C-25.72584229 36.44788086 -26.38527832 36.16138672 -27.06469727 35.86621094 C-29.074048 34.96685729 -31.0377229 33.99738844 -33 33 C-30.88207125 30.65230757 -29.12174468 29.44500864 -26.1640625 28.3515625 C-25.42929687 28.06796875 -24.69453125 27.784375 -23.9375 27.4921875 C-22.40524516 26.91759194 -20.87139856 26.34722199 -19.3359375 25.78125 C-12.69207045 23.20268622 -8.86693739 20.12360594 -5.76171875 13.57421875 C-5.05830903 11.95045986 -4.36709651 10.32136865 -3.6875 8.6875 C-3.32849609 7.85154297 -2.96949219 7.01558594 -2.59960938 6.15429688 C-1.72227061 4.10717308 -0.85617884 2.05604184 0 0 Z " fill="#37c3ffc1" transform="translate(33,134)"/>
<path d="M0 0 C5.31027254 1.46032495 9.46330032 3.98320986 14 7 C13.45566717 12.02409059 11.74940188 15.96248199 9.40234375 20.3671875 C8.87176109 21.38656906 8.87176109 21.38656906 8.33045959 22.42654419 C7.20723191 24.58019414 6.07259612 26.72758592 4.9375 28.875 C4.17046051 30.34074657 3.40417634 31.80688866 2.63867188 33.2734375 C0.76782398 36.85359448 -1.11327373 40.42818718 -3 44 C-11.71428571 43.00892857 -11.71428571 43.00892857 -16 41 C-15.40099511 36.40618023 -14.16611719 32.55060997 -12.3828125 28.28125 C-12.12498993 27.66028442 -11.86716736 27.03931885 -11.60153198 26.39953613 C-11.05812834 25.09405478 -10.51170167 23.78982804 -9.96240234 22.48681641 C-9.12846951 20.50823175 -8.30367544 18.52603681 -7.48046875 16.54296875 C-5.14278222 10.9408294 -2.76635758 5.40785551 0 0 Z " fill="#37c3ffc1" transform="translate(285,18)"/>
<path d="M0 0 C4.95 0 9.9 0 15 0 C15 14.52 15 29.04 15 44 C11.47478731 45.1750709 10.34332144 44.72717795 6.875 43.625 C5.98554688 43.34914062 5.09609375 43.07328125 4.1796875 42.7890625 C2 42 2 42 1 41 C0.77023645 39.0718364 0.6042381 37.13601388 0.46484375 35.19921875 C0.37783203 33.99330078 0.29082031 32.78738281 0.20117188 31.54492188 C0.0706543 29.63549805 0.0706543 29.63549805 -0.0625 27.6875 C-0.15337891 26.45708984 -0.24425781 25.22667969 -0.33789062 23.95898438 C-1.4348681 8.34561319 -1.4348681 8.34561319 -1 1 C-0.67 0.67 -0.34 0.34 0 0 Z " fill="#37c3ffc1" transform="translate(205,0)"/>
<path d="M0 0 C5.61 0.33 11.22 0.66 17 1 C17 6.26607037 16.68296739 10.92763349 15.79296875 16.05078125 C15.60387688 17.16080757 15.60387688 17.16080757 15.41096497 18.29325867 C15.1442429 19.8442459 14.87431582 21.3946851 14.60131836 22.94458008 C14.18602199 25.32095733 13.79097277 27.70016955 13.39648438 30.08007812 C13.13404204 31.59135986 12.87041224 33.10243598 12.60546875 34.61328125 C12.48970993 35.32470779 12.37395111 36.03613434 12.25468445 36.76911926 C11.89135742 38.76293945 11.89135742 38.76293945 11 42 C10.01 42.66 9.02 43.32 8 44 C5.30078125 43.3203125 5.30078125 43.3203125 2.3125 42.125 C1.31863281 41.73570313 0.32476562 41.34640625 -0.69921875 40.9453125 C-1.45847656 40.63335937 -2.21773437 40.32140625 -3 40 C-2.41875135 26.61598502 -1.36578313 13.32633052 0 0 Z " fill="#37c3ffc1" transform="translate(230,7)"/>
<path d="M0 0 C4.50343911 0.5112012 6.87525426 2.17521358 10.3125 5.0625 C11.19550781 5.79597656 12.07851563 6.52945313 12.98828125 7.28515625 C13.65214844 7.85105469 14.31601562 8.41695312 15 9 C12.40658179 13.53639712 9.34619868 17.58060212 6.11352539 21.67822266 C3.78020851 24.64865829 1.54153173 27.63524819 -0.5625 30.7734375 C-6.62872609 39.63619264 -6.62872609 39.63619264 -10.48828125 40.66015625 C-14.43694565 40.29178658 -17.51387029 38.8212292 -21 37 C-20.43982695 33.3909582 -19.54536603 30.86918303 -17.55859375 27.8125 C-17.06069336 27.03688721 -16.56279297 26.26127441 -16.04980469 25.4621582 C-15.51774414 24.649646 -14.98568359 23.83713379 -14.4375 23 C-13.34703664 21.30638837 -12.25719566 19.61237585 -11.16796875 17.91796875 C-10.36238525 16.67152588 -10.36238525 16.67152588 -9.54052734 15.39990234 C-7.3993554 12.06428899 -5.31730993 8.69423152 -3.25 5.3125 C-2.61578125 4.27738281 -1.9815625 3.24226563 -1.328125 2.17578125 C-0.88984375 1.45777344 -0.4515625 0.73976563 0 0 Z " fill="#37c3ffc1" transform="translate(311,28)"/>
<path d="M0 0 C1.35732116 0.406273 2.71069689 0.8257279 4.0625 1.25 C4.81660156 1.48203125 5.57070313 1.7140625 6.34765625 1.953125 C9.79380844 3.31331467 12.81257458 5.11173329 16 7 C11.6870521 19.34057126 7.35831893 31.67537652 3 44 C1.58249437 43.88490339 0.16598831 43.75746342 -1.25 43.625 C-2.03890625 43.55539063 -2.8278125 43.48578125 -3.640625 43.4140625 C-6.085877 42.98492887 -7.84836903 42.21399362 -10 41 C-9.41006414 35.63657433 -8.51826288 30.48727277 -7.1875 25.25390625 C-7.01371826 24.55732407 -6.83993652 23.86074188 -6.66088867 23.14305115 C-6.29670863 21.68797648 -5.93023136 20.23347494 -5.56152344 18.77954102 C-4.99564758 16.54531551 -4.43875492 14.30898122 -3.8828125 12.07226562 C-3.52656735 10.65351373 -3.16981516 9.23488904 -2.8125 7.81640625 C-2.64580811 7.14670303 -2.47911621 6.47699982 -2.30737305 5.78700256 C-1.11536739 1.11536739 -1.11536739 1.11536739 0 0 Z " fill="#37c3ffc1" transform="translate(258,12)"/>
<path d="M0 0 C1.3731531 2.74630619 1.4382661 5.27179939 1.75390625 8.328125 C1.95209961 10.24044922 1.95209961 10.24044922 2.15429688 12.19140625 C2.22124756 12.8580127 2.28819824 13.52461914 2.35717773 14.21142578 C2.56036136 16.22876616 2.77090113 18.24523747 2.98242188 20.26171875 C3.55553914 25.86866891 4.08516806 31.3585534 4 37 C-5.8343817 36.15220847 -5.8343817 36.15220847 -10 33 C-11.51166067 29.1452263 -12.17673544 25.19502154 -12.875 21.125 C-13.08640625 20.03574219 -13.2978125 18.94648438 -13.515625 17.82421875 C-14.39610647 13.15309301 -15.12240311 8.76505558 -15 4 C-4.73913043 0 -4.73913043 0 0 0 Z " fill="#37c3ffc1" transform="translate(194,1)"/>
<path d="M0 0 C4.13621084 3.3810038 7.81316569 6.66590534 11 11 C9.66398285 14.02432759 8.25983193 15.9299142 5.76953125 18.09375 C5.13080078 18.64933594 4.49207031 19.20492187 3.83398438 19.77734375 C3.16689453 20.34582031 2.49980469 20.91429688 1.8125 21.5 C0.84086914 22.35271484 0.84086914 22.35271484 -0.15039062 23.22265625 C-4.20681007 26.71579667 -8.10535513 29.78657085 -13 32 C-15.87109375 31.734375 -15.87109375 31.734375 -18.4375 30.75 C-19.30246094 30.43546875 -20.16742188 30.1209375 -21.05859375 29.796875 C-21.69925781 29.53390625 -22.33992188 29.2709375 -23 29 C-22.53870238 24.33759905 -20.8933916 22.50655583 -17.5 19.375 C-12.89635448 14.96950278 -8.86598278 10.3373104 -4.91015625 5.34765625 C-3.35389498 3.43495068 -1.78483931 1.69531759 0 0 Z " fill="#37c3ffc1" transform="translate(335,43)"/>
<path d="M0 0 C3.82097239 0.53069061 6.06171403 1.49701566 9 4 C8.67 4.66 8.34 5.32 8 6 C7.21625 5.505 6.4325 5.01 5.625 4.5 C3.21447673 2.83462035 3.21447673 2.83462035 1 3 C-0.38232443 4.62626404 -1.71937515 6.2925002 -3 8 C-2.45276317 4.62537285 -1.9451 2.91765 0 0 Z " fill="#37c3ffc1" transform="translate(311,28)"/>
</svg>
